<svg viewBox="84 116 402 148" fill="none" xmlns="http://www.w3.org/2000/svg" role="img" aria-label="CateringTools by DEEC Studio">
<path d="M287.232 136.048C294.957 135.632 302.671 137.922 308.533 142.695C309.727 143.666 310.643 144.445 311.505 145.694C309.638 145.743 298.343 145.482 297.579 145.955C297.292 146.132 297.158 146.463 297.124 146.77C297.083 147.136 297.196 147.402 297.456 147.675C297.758 147.993 298.237 148.051 298.667 148.096C300.375 148.273 302.238 148.1 303.966 148.093C308.362 148.076 312.83 147.959 317.22 148.088C318.882 148.136 320.36 148.364 321.532 149.551C322.176 150.203 322.675 151.029 322.829 151.91C323.083 153.371 322.98 154.922 322.977 156.398L322.986 162.187L322.981 172.461C322.981 174.59 323.039 176.816 322.929 178.929C317.877 179.081 311.907 178.941 306.787 178.941L299.504 178.943C294.307 178.944 290.553 179.454 290.998 172.99C291.066 172.016 291.01 170.534 291.009 169.511L291.002 150.279C291.003 147.744 291.155 144.711 290.883 142.205C290.813 141.561 290.163 140.833 289.557 140.47C287.737 139.378 284.242 140.297 282.209 140.737C277.691 142.024 274.68 143.435 271.098 146.432C266.082 150.579 262.648 156.598 262.392 162.894C262.319 164.688 262.285 168.794 264.926 168.851C267.354 168.904 269.783 168.902 272.206 168.901L287.251 168.911C287.278 170.226 287.26 171.587 287.26 172.905C279.812 173.023 271.983 172.915 264.502 172.918L256.46 172.92C255.036 172.919 251.717 173.184 250.718 172.352C250.293 172 250.035 171.504 250.003 170.974C249.84 167.934 256.297 168.888 258.576 168.856C256.428 160.792 259.264 152.521 264.993 146.306C270.654 140.275 278.653 136.585 287.232 136.048Z" fill="#8A765C"/>
<path d="M298.943 154.05C301.608 153.94 304.934 154.05 307.728 154.022C310.424 154.07 313.291 153.906 315.955 154.1C317.07 154.181 317.582 155.435 316.002 155.924C313.212 156.101 309.992 155.903 307.146 155.97C304.767 155.979 302.372 155.962 299.995 155.972C297.83 155.98 297.346 154.888 298.943 154.05Z" fill="#F6F6F6"/>
<path d="M298.943 160.05C301.608 159.94 304.934 160.05 307.728 160.022C310.424 160.07 313.291 159.906 315.955 160.1C317.07 160.181 317.582 161.435 316.002 161.924C313.212 162.101 309.992 161.903 307.146 161.97C304.767 161.979 302.372 161.962 299.995 161.972C297.83 161.98 297.346 160.888 298.943 160.05Z" fill="#F6F6F6"/>
<path d="M298.943 166.05C301.608 165.94 304.934 166.05 307.728 166.022C310.424 166.07 313.291 165.906 315.955 166.1C317.07 166.181 317.582 167.435 316.002 167.924C313.212 168.101 309.992 167.903 307.146 167.97C304.767 167.979 302.372 167.962 299.995 167.972C297.83 167.98 297.346 166.888 298.943 166.05Z" fill="#F6F6F6"/>
<path d="M288.252 124.054C289.249 123.91 290.217 124.037 291.104 124.636C291.962 125.213 292.589 126.177 292.845 127.311C293.496 130.191 292.026 132.275 289.744 132.977C288.658 133.043 287.768 133.004 286.8 132.336C285.971 131.776 285.367 130.842 285.124 129.744C284.864 128.552 285.017 127.286 285.547 126.229C286.195 124.939 287.083 124.413 288.252 124.054Z" fill="#8A765C"/>
<path d="M109.288 229.32C105.96 229.32 102.973 228.595 100.328 227.144C97.7253 225.651 95.6773 223.624 94.184 221.064C92.6907 218.461 91.944 215.496 91.944 212.168C91.944 208.797 92.6907 205.832 94.184 203.272C95.6773 200.712 97.7253 198.707 100.328 197.256C102.973 195.805 105.96 195.08 109.288 195.08C112.147 195.08 114.728 195.635 117.032 196.744C119.336 197.853 121.149 199.517 122.472 201.736L119.08 204.04C117.928 202.333 116.499 201.075 114.792 200.264C113.085 199.453 111.229 199.048 109.224 199.048C106.835 199.048 104.68 199.603 102.76 200.712C100.84 201.779 99.3253 203.293 98.216 205.256C97.1067 207.219 96.552 209.523 96.552 212.168C96.552 214.813 97.1067 217.117 98.216 219.08C99.3253 221.043 100.84 222.579 102.76 223.688C104.68 224.755 106.835 225.288 109.224 225.288C111.229 225.288 113.085 224.883 114.792 224.072C116.499 223.261 117.928 222.024 119.08 220.36L122.472 222.664C121.149 224.84 119.336 226.504 117.032 227.656C114.728 228.765 112.147 229.32 109.288 229.32ZM149.255 229V221.576L149.062 220.36V207.944C149.062 205.085 148.252 202.888 146.631 201.352C145.052 199.816 142.684 199.048 139.527 199.048C137.351 199.048 135.281 199.411 133.318 200.136C131.356 200.861 129.692 201.821 128.326 203.016L126.278 199.624C127.985 198.173 130.033 197.064 132.422 196.296C134.812 195.485 137.329 195.08 139.975 195.08C144.327 195.08 147.676 196.168 150.023 198.344C152.412 200.477 153.607 203.741 153.607 208.136V229H149.255ZM137.67 229.32C135.153 229.32 132.956 228.915 131.078 228.104C129.244 227.251 127.836 226.099 126.854 224.648C125.873 223.155 125.382 221.448 125.382 219.528C125.382 217.779 125.788 216.2 126.598 214.792C127.452 213.341 128.817 212.189 130.694 211.336C132.615 210.44 135.175 209.992 138.375 209.992H149.958V213.384H138.503C135.26 213.384 132.999 213.96 131.719 215.112C130.481 216.264 129.862 217.693 129.862 219.4C129.862 221.32 130.609 222.856 132.102 224.008C133.596 225.16 135.686 225.736 138.375 225.736C140.935 225.736 143.132 225.16 144.967 224.008C146.844 222.813 148.209 221.107 149.062 218.888L150.087 222.024C149.233 224.243 147.74 226.013 145.607 227.336C143.516 228.659 140.871 229.32 137.67 229.32ZM173.372 229.32C170.215 229.32 167.783 228.467 166.076 226.76C164.37 225.053 163.516 222.643 163.516 219.528V187.976H168.06V219.272C168.06 221.235 168.551 222.749 169.532 223.816C170.556 224.883 172.007 225.416 173.884 225.416C175.89 225.416 177.554 224.84 178.876 223.688L180.476 226.952C179.58 227.763 178.492 228.36 177.212 228.744C175.975 229.128 174.695 229.32 173.372 229.32ZM157.5 199.176V195.4H178.3V199.176H157.5ZM198.633 229.32C195.134 229.32 192.062 228.595 189.417 227.144C186.772 225.651 184.702 223.624 183.209 221.064C181.716 218.461 180.969 215.496 180.969 212.168C180.969 208.84 181.673 205.896 183.081 203.336C184.532 200.776 186.494 198.771 188.969 197.32C191.486 195.827 194.302 195.08 197.417 195.08C200.574 195.08 203.369 195.805 205.801 197.256C208.276 198.664 210.217 200.669 211.625 203.272C213.033 205.832 213.737 208.797 213.737 212.168C213.737 212.381 213.716 212.616 213.673 212.872C213.673 213.085 213.673 213.32 213.673 213.576H184.425V210.184H211.241L209.449 211.528C209.449 209.096 208.916 206.941 207.849 205.064C206.825 203.144 205.417 201.651 203.625 200.584C201.833 199.517 199.764 198.984 197.417 198.984C195.113 198.984 193.044 199.517 191.209 200.584C189.374 201.651 187.945 203.144 186.921 205.064C185.897 206.984 185.385 209.181 185.385 211.656V212.36C185.385 214.92 185.94 217.181 187.049 219.144C188.201 221.064 189.78 222.579 191.785 223.688C193.833 224.755 196.158 225.288 198.761 225.288C200.809 225.288 202.708 224.925 204.457 224.2C206.249 223.475 207.785 222.365 209.065 220.872L211.625 223.816C210.132 225.608 208.254 226.973 205.993 227.912C203.774 228.851 201.321 229.32 198.633 229.32ZM219.786 229V195.4H224.138V204.552L223.69 202.952C224.629 200.392 226.207 198.451 228.426 197.128C230.645 195.763 233.397 195.08 236.682 195.08V199.496C236.511 199.496 236.341 199.496 236.17 199.496C235.999 199.453 235.829 199.432 235.658 199.432C232.117 199.432 229.343 200.52 227.338 202.696C225.333 204.829 224.33 207.88 224.33 211.848V229H219.786ZM241.774 229V195.4H246.318V229H241.774ZM244.078 187.976C243.139 187.976 242.35 187.656 241.71 187.016C241.07 186.376 240.75 185.608 240.75 184.712C240.75 183.816 241.07 183.069 241.71 182.472C242.35 181.832 243.139 181.512 244.078 181.512C245.016 181.512 245.806 181.811 246.446 182.408C247.086 183.005 247.406 183.752 247.406 184.648C247.406 185.587 247.086 186.376 246.446 187.016C245.848 187.656 245.059 187.976 244.078 187.976ZM255.761 229V195.4H260.113V204.616L259.409 202.888C260.476 200.456 262.182 198.557 264.529 197.192C266.876 195.784 269.67 195.08 272.913 195.08C275.644 195.08 278.033 195.613 280.081 196.68C282.172 197.704 283.793 199.283 284.945 201.416C286.14 203.549 286.737 206.237 286.737 209.48V229H282.193V209.928C282.193 206.387 281.297 203.72 279.505 201.928C277.756 200.093 275.281 199.176 272.081 199.176C269.692 199.176 267.601 199.667 265.809 200.648C264.06 201.587 262.694 202.973 261.713 204.808C260.774 206.6 260.305 208.776 260.305 211.336V229H255.761ZM310.147 241.736C307.075 241.736 304.131 241.288 301.315 240.392C298.499 239.496 296.216 238.216 294.467 236.552L296.771 233.096C298.35 234.504 300.291 235.613 302.595 236.424C304.942 237.277 307.416 237.704 310.019 237.704C314.286 237.704 317.422 236.701 319.427 234.696C321.432 232.733 322.435 229.661 322.435 225.48V217.096L323.075 211.336L322.627 205.576V195.4H326.979V224.904C326.979 230.707 325.55 234.952 322.691 237.64C319.875 240.371 315.694 241.736 310.147 241.736ZM309.315 227.72C306.115 227.72 303.235 227.037 300.675 225.672C298.115 224.264 296.088 222.323 294.595 219.848C293.144 217.373 292.419 214.536 292.419 211.336C292.419 208.136 293.144 205.32 294.595 202.888C296.088 200.413 298.115 198.493 300.675 197.128C303.235 195.763 306.115 195.08 309.315 195.08C312.302 195.08 314.99 195.699 317.379 196.936C319.768 198.173 321.667 200.008 323.075 202.44C324.483 204.872 325.187 207.837 325.187 211.336C325.187 214.835 324.483 217.8 323.075 220.232C321.667 222.664 319.768 224.52 317.379 225.8C314.99 227.08 312.302 227.72 309.315 227.72ZM309.763 223.688C312.238 223.688 314.435 223.176 316.355 222.152C318.275 221.085 319.79 219.635 320.899 217.8C322.008 215.923 322.563 213.768 322.563 211.336C322.563 208.904 322.008 206.771 320.899 204.936C319.79 203.101 318.275 201.672 316.355 200.648C314.435 199.581 312.238 199.048 309.763 199.048C307.331 199.048 305.134 199.581 303.171 200.648C301.251 201.672 299.736 203.101 298.627 204.936C297.56 206.771 297.027 208.904 297.027 211.336C297.027 213.768 297.56 215.923 298.627 217.8C299.736 219.635 301.251 221.085 303.171 222.152C305.134 223.176 307.331 223.688 309.763 223.688Z" fill="black"/>
<path d="M347.688 229.512C343.635 229.512 340.477 228.488 338.216 226.44C335.955 224.349 334.824 221.256 334.824 217.16V186.952H344.808V217.032C344.808 218.483 345.192 219.613 345.96 220.424C346.728 221.192 347.773 221.576 349.096 221.576C350.675 221.576 352.019 221.149 353.128 220.296L355.816 227.336C354.792 228.061 353.555 228.616 352.104 229C350.696 229.341 349.224 229.512 347.688 229.512ZM329.512 202.248V194.568H353.384V202.248H329.512ZM373.542 229.512C369.873 229.512 366.609 228.744 363.75 227.208C360.934 225.672 358.694 223.581 357.03 220.936C355.409 218.248 354.598 215.197 354.598 211.784C354.598 208.328 355.409 205.277 357.03 202.632C358.694 199.944 360.934 197.853 363.75 196.36C366.609 194.824 369.873 194.056 373.542 194.056C377.169 194.056 380.411 194.824 383.27 196.36C386.129 197.853 388.369 199.923 389.99 202.568C391.611 205.213 392.422 208.285 392.422 211.784C392.422 215.197 391.611 218.248 389.99 220.936C388.369 223.581 386.129 225.672 383.27 227.208C380.411 228.744 377.169 229.512 373.542 229.512ZM373.542 221.32C375.206 221.32 376.699 220.936 378.022 220.168C379.345 219.4 380.39 218.312 381.158 216.904C381.926 215.453 382.31 213.747 382.31 211.784C382.31 209.779 381.926 208.072 381.158 206.664C380.39 205.256 379.345 204.168 378.022 203.4C376.699 202.632 375.206 202.248 373.542 202.248C371.878 202.248 370.385 202.632 369.062 203.4C367.739 204.168 366.673 205.256 365.862 206.664C365.094 208.072 364.71 209.779 364.71 211.784C364.71 213.747 365.094 215.453 365.862 216.904C366.673 218.312 367.739 219.4 369.062 220.168C370.385 220.936 371.878 221.32 373.542 221.32ZM412.279 229.512C408.61 229.512 405.346 228.744 402.487 227.208C399.671 225.672 397.431 223.581 395.767 220.936C394.146 218.248 393.335 215.197 393.335 211.784C393.335 208.328 394.146 205.277 395.767 202.632C397.431 199.944 399.671 197.853 402.487 196.36C405.346 194.824 408.61 194.056 412.279 194.056C415.906 194.056 419.149 194.824 422.007 196.36C424.866 197.853 427.106 199.923 428.728 202.568C430.349 205.213 431.16 208.285 431.16 211.784C431.16 215.197 430.349 218.248 428.728 220.936C427.106 223.581 424.866 225.672 422.007 227.208C419.149 228.744 415.906 229.512 412.279 229.512ZM412.279 221.32C413.943 221.32 415.437 220.936 416.76 220.168C418.082 219.4 419.127 218.312 419.896 216.904C420.664 215.453 421.048 213.747 421.048 211.784C421.048 209.779 420.664 208.072 419.896 206.664C419.127 205.256 418.082 204.168 416.76 203.4C415.437 202.632 413.943 202.248 412.279 202.248C410.615 202.248 409.122 202.632 407.799 203.4C406.477 204.168 405.41 205.256 404.599 206.664C403.831 208.072 403.447 209.779 403.447 211.784C403.447 213.747 403.831 215.453 404.599 216.904C405.41 218.312 406.477 219.4 407.799 220.168C409.122 220.936 410.615 221.32 412.279 221.32ZM434.633 229V181.512H444.617V229H434.633ZM462.267 229.512C459.323 229.512 456.486 229.171 453.755 228.488C451.067 227.763 448.934 226.867 447.355 225.8L450.683 218.632C452.262 219.613 454.118 220.424 456.251 221.064C458.427 221.661 460.56 221.96 462.651 221.96C464.955 221.96 466.576 221.683 467.515 221.128C468.496 220.573 468.987 219.805 468.987 218.824C468.987 218.013 468.603 217.416 467.835 217.032C467.11 216.605 466.128 216.285 464.891 216.072C463.654 215.859 462.288 215.645 460.795 215.432C459.344 215.219 457.872 214.941 456.379 214.6C454.886 214.216 453.52 213.661 452.283 212.936C451.046 212.211 450.043 211.229 449.275 209.992C448.55 208.755 448.187 207.155 448.187 205.192C448.187 203.016 448.806 201.096 450.043 199.432C451.323 197.768 453.158 196.467 455.547 195.528C457.936 194.547 460.795 194.056 464.123 194.056C466.47 194.056 468.859 194.312 471.291 194.824C473.723 195.336 475.75 196.083 477.371 197.064L474.043 204.168C472.379 203.187 470.694 202.525 468.987 202.184C467.323 201.8 465.702 201.608 464.123 201.608C461.904 201.608 460.283 201.907 459.259 202.504C458.235 203.101 457.723 203.869 457.723 204.808C457.723 205.661 458.086 206.301 458.811 206.728C459.579 207.155 460.582 207.496 461.819 207.752C463.056 208.008 464.4 208.243 465.851 208.456C467.344 208.627 468.838 208.904 470.331 209.288C471.824 209.672 473.168 210.227 474.363 210.952C475.6 211.635 476.603 212.595 477.371 213.832C478.139 215.027 478.523 216.605 478.523 218.568C478.523 220.701 477.883 222.6 476.603 224.264C475.323 225.885 473.467 227.165 471.035 228.104C468.646 229.043 465.723 229.512 462.267 229.512Z" fill="black"/>
<path d="M373.244 256V242H379.604C381.124 242 382.464 242.293 383.624 242.88C384.784 243.453 385.691 244.26 386.344 245.3C386.997 246.34 387.324 247.573 387.324 249C387.324 250.413 386.997 251.647 386.344 252.7C385.691 253.74 384.784 254.553 383.624 255.14C382.464 255.713 381.124 256 379.604 256H373.244ZM376.484 253.34H379.444C380.377 253.34 381.184 253.167 381.864 252.82C382.557 252.46 383.091 251.953 383.464 251.3C383.851 250.647 384.044 249.88 384.044 249C384.044 248.107 383.851 247.34 383.464 246.7C383.091 246.047 382.557 245.547 381.864 245.2C381.184 244.84 380.377 244.66 379.444 244.66H376.484V253.34ZM389.767 256V242H400.347V244.6H392.987V253.4H400.607V256H389.767ZM392.747 250.16V247.64H399.487V250.16H392.747ZM403.185 256V242H413.765V244.6H406.405V253.4H414.025V256H403.185ZM406.165 250.16V247.64H412.905V250.16H406.165ZM423.303 256.24C422.223 256.24 421.217 256.067 420.283 255.72C419.363 255.36 418.563 254.853 417.883 254.2C417.203 253.547 416.67 252.78 416.283 251.9C415.91 251.02 415.723 250.053 415.723 249C415.723 247.947 415.91 246.98 416.283 246.1C416.67 245.22 417.203 244.453 417.883 243.8C418.577 243.147 419.383 242.647 420.303 242.3C421.223 241.94 422.23 241.76 423.323 241.76C424.537 241.76 425.63 241.973 426.603 242.4C427.59 242.813 428.417 243.427 429.083 244.24L427.003 246.16C426.523 245.613 425.99 245.207 425.403 244.94C424.817 244.66 424.177 244.52 423.483 244.52C422.83 244.52 422.23 244.627 421.683 244.84C421.137 245.053 420.663 245.36 420.263 245.76C419.863 246.16 419.55 246.633 419.323 247.18C419.11 247.727 419.003 248.333 419.003 249C419.003 249.667 419.11 250.273 419.323 250.82C419.55 251.367 419.863 251.84 420.263 252.24C420.663 252.64 421.137 252.947 421.683 253.16C422.23 253.373 422.83 253.48 423.483 253.48C424.177 253.48 424.817 253.347 425.403 253.08C425.99 252.8 426.523 252.38 427.003 251.82L429.083 253.74C428.417 254.553 427.59 255.173 426.603 255.6C425.63 256.027 424.53 256.24 423.303 256.24Z" fill="black"/>
<path d="M435.835 247C435.791 246.555 435.594 246.201 435.245 245.937C434.896 245.674 434.457 245.543 433.929 245.543C433.556 245.543 433.228 245.607 432.944 245.734C432.663 245.862 432.442 246.039 432.28 246.266C432.121 246.49 432.042 246.745 432.042 247.031C432.042 247.242 432.088 247.427 432.179 247.586C432.27 247.745 432.392 247.882 432.546 247.996C432.702 248.108 432.874 248.204 433.062 248.285C433.252 248.366 433.443 248.434 433.636 248.488L434.479 248.73C434.735 248.801 434.99 248.891 435.245 249C435.5 249.109 435.733 249.247 435.944 249.414C436.158 249.578 436.328 249.78 436.456 250.02C436.586 250.257 436.651 250.542 436.651 250.875C436.651 251.302 436.541 251.686 436.319 252.027C436.098 252.368 435.78 252.639 435.366 252.84C434.952 253.038 434.456 253.137 433.878 253.137C433.334 253.137 432.861 253.047 432.46 252.867C432.059 252.685 431.744 252.434 431.515 252.113C431.285 251.793 431.157 251.422 431.128 251H431.878C431.904 251.315 432.008 251.582 432.19 251.801C432.373 252.02 432.61 252.186 432.901 252.301C433.193 252.413 433.519 252.469 433.878 252.469C434.276 252.469 434.631 252.402 434.94 252.27C435.253 252.134 435.498 251.947 435.675 251.707C435.854 251.465 435.944 251.184 435.944 250.863C435.944 250.592 435.874 250.366 435.733 250.184C435.593 249.999 435.396 249.844 435.144 249.719C434.894 249.594 434.603 249.483 434.272 249.387L433.315 249.105C432.688 248.918 432.201 248.659 431.854 248.328C431.508 247.997 431.335 247.576 431.335 247.062C431.335 246.633 431.45 246.255 431.679 245.93C431.91 245.602 432.223 245.346 432.616 245.164C433.012 244.979 433.456 244.887 433.948 244.887C434.446 244.887 434.886 244.978 435.269 245.16C435.651 245.342 435.955 245.594 436.179 245.914C436.405 246.232 436.526 246.594 436.542 247H435.835ZM437.925 245.656V245H443.726V245.656H441.19V253H440.46V245.656H437.925ZM450.702 245H451.433V250.297C451.433 250.841 451.305 251.328 451.05 251.758C450.795 252.185 450.439 252.522 449.983 252.77C449.53 253.014 449.003 253.137 448.401 253.137C447.802 253.137 447.275 253.013 446.819 252.766C446.364 252.518 446.008 252.181 445.753 251.754C445.498 251.327 445.37 250.841 445.37 250.297V245H446.101V250.246C446.101 250.671 446.196 251.049 446.386 251.383C446.576 251.714 446.843 251.974 447.187 252.164C447.533 252.354 447.938 252.449 448.401 252.449C448.865 252.449 449.27 252.354 449.616 252.164C449.963 251.974 450.229 251.714 450.417 251.383C450.607 251.049 450.702 250.671 450.702 250.246V245ZM455.899 253H453.556V245H456.04C456.803 245 457.455 245.159 457.997 245.477C458.541 245.794 458.958 246.25 459.247 246.844C459.536 247.437 459.681 248.15 459.681 248.98C459.681 249.819 459.532 250.539 459.235 251.141C458.941 251.74 458.511 252.199 457.946 252.52C457.384 252.84 456.701 253 455.899 253ZM454.286 252.344H455.856C456.544 252.344 457.119 252.208 457.583 251.937C458.047 251.667 458.394 251.28 458.626 250.777C458.858 250.275 458.974 249.676 458.974 248.98C458.971 248.29 458.856 247.697 458.63 247.199C458.406 246.702 458.073 246.32 457.63 246.055C457.19 245.789 456.646 245.656 455.997 245.656H454.286V252.344ZM462.182 245V253H461.451V245H462.182ZM470.867 249C470.867 249.833 470.719 250.559 470.422 251.176C470.125 251.79 469.716 252.267 469.195 252.605C468.677 252.941 468.081 253.109 467.406 253.109C466.732 253.109 466.134 252.941 465.613 252.605C465.095 252.267 464.688 251.79 464.391 251.176C464.096 250.559 463.949 249.833 463.949 249C463.949 248.167 464.096 247.443 464.391 246.828C464.688 246.211 465.096 245.734 465.617 245.398C466.138 245.06 466.734 244.891 467.406 244.891C468.081 244.891 468.677 245.06 469.195 245.398C469.716 245.734 470.125 246.211 470.422 246.828C470.719 247.443 470.867 248.167 470.867 249ZM470.156 249C470.156 248.284 470.036 247.671 469.797 247.16C469.557 246.647 469.23 246.255 468.816 245.984C468.402 245.714 467.932 245.578 467.406 245.578C466.883 245.578 466.414 245.714 466 245.984C465.586 246.255 465.258 246.646 465.016 247.156C464.776 247.667 464.656 248.281 464.656 249C464.656 249.716 464.776 250.329 465.016 250.84C465.255 251.35 465.582 251.742 465.996 252.016C466.41 252.286 466.88 252.422 467.406 252.422C467.932 252.422 468.402 252.286 468.816 252.016C469.233 251.745 469.561 251.354 469.801 250.844C470.04 250.331 470.159 249.716 470.156 249Z" fill="#A3A2A2"/>
<path d="M356.254 249V241.3H359.576C360.434 241.3 361.098 241.472 361.567 241.817C362.044 242.162 362.282 242.649 362.282 243.28C362.282 243.698 362.183 244.05 361.985 244.336C361.794 244.622 361.53 244.838 361.193 244.985C360.863 245.132 360.5 245.205 360.104 245.205L360.291 244.941C360.782 244.941 361.204 245.018 361.556 245.172C361.915 245.319 362.194 245.542 362.392 245.843C362.59 246.136 362.689 246.503 362.689 246.943C362.689 247.596 362.447 248.102 361.963 248.461C361.486 248.82 360.764 249 359.796 249H356.254ZM357.068 248.329H359.785C360.46 248.329 360.977 248.215 361.336 247.988C361.695 247.753 361.875 247.383 361.875 246.877C361.875 246.378 361.695 246.015 361.336 245.788C360.977 245.553 360.46 245.436 359.785 245.436H356.98V244.765H359.521C360.137 244.765 360.614 244.648 360.951 244.413C361.296 244.178 361.468 243.83 361.468 243.368C361.468 242.899 361.296 242.55 360.951 242.323C360.614 242.088 360.137 241.971 359.521 241.971H357.068V248.329ZM364.426 251.189C364.155 251.189 363.894 251.145 363.645 251.057C363.403 250.969 363.194 250.837 363.018 250.661L363.381 250.078C363.528 250.217 363.685 250.324 363.854 250.397C364.03 250.478 364.224 250.518 364.437 250.518C364.694 250.518 364.914 250.445 365.097 250.298C365.288 250.159 365.467 249.909 365.636 249.55L366.01 248.703L366.098 248.582L368.474 243.225H369.244L366.351 249.693C366.19 250.067 366.01 250.364 365.812 250.584C365.621 250.804 365.412 250.958 365.185 251.046C364.958 251.141 364.705 251.189 364.426 251.189ZM365.966 249.165L363.304 243.225H364.118L366.472 248.527L365.966 249.165Z" fill="black"/>
</svg>
